[Header]
FileType HTR
DataType HTRS
FileVersion 1
NumSegments 64
NumFrames 3
DataFrameRate 24
EulerRotationOrder ZYX
CalibrationUnits mm
RotationUnits Degrees
GlobalAxisofGravity Y
BoneLengthAxis Y
ScaleFactor 1.0
[SegmentNames&Hierarchy]
Hips	GLOBAL
Spine	Hips
Spine1	Spine
Spine2	Spine1
Neck	Spine2
Head	Neck
LeftEye	Head
RightEye	Head
LeftShoulder	Spine2
LeftArm	LeftShoulder
LeftForeArm	LeftArm
LeftHand	LeftForeArm
LeftHandThumb1	LeftHand
LeftHandThumb2	LeftHandThumb1
LeftHandThumb3	LeftHandThumb2
LeftHandThumb4	LeftHandThumb3
LeftHandIndex1	LeftHand
LeftHandIndex2	LeftHandIndex1
LeftHandIndex3	LeftHandIndex2
LeftHandIndex4	LeftHandIndex3
LeftHandMiddle1	LeftHand
LeftHandMiddle2	LeftHandMiddle1
LeftHandMiddle3	LeftHandMiddle2
LeftHandMiddle4	LeftHandMiddle3
LeftHandRing1	LeftHand
LeftHandRing2	LeftHandRing1
LeftHandRing3	LeftHandRing2
LeftHandRing4	LeftHandRing3
LeftHandPinky1	LeftHand
LeftHandPinky2	LeftHandPinky1
LeftHandPinky3	LeftHandPinky2
LeftHandPinky4	LeftHandPinky3
RightShoulder	Spine2
RightArm	RightShoulder
RightForeArm	RightArm
RightHand	RightForeArm
RightHandPinky1	RightHand
RightHandPinky2	RightHandPinky1
RightHandPinky3	RightHandPinky2
RightHandPinky4	RightHandPinky3
RightHandRing1	RightHand
RightHandRing2	RightHandRing1
RightHandRing3	RightHandRing2
RightHandRing4	RightHandRing3
RightHandMiddle1	RightHand
RightHandMiddle2	RightHandMiddle1
RightHandMiddle3	RightHandMiddle2
RightHandMiddle4	RightHandMiddle3
RightHandIndex1	RightHand
RightHandIndex2	RightHandIndex1
RightHandIndex3	RightHandIndex2
RightHandIndex4	RightHandIndex3
RightHandThumb1	RightHand
RightHandThumb2	RightHandThumb1
RightHandThumb3	RightHandThumb2
RightHandThumb4	RightHandThumb3
LeftUpLeg	Hips
LeftLeg	LeftUpLeg
LeftFoot	LeftLeg
LeftToeBase	LeftFoot
RightUpLeg	Hips
RightLeg	RightUpLeg
RightFoot	RightLeg
RightToeBase	RightFoot
[BasePosition]
Hips	0	0	0	0	0	0	1
Spine	0	0	0	0	0	0	1
Spine1	0	0	0	0	0	0	1
Spine2	0	0	0	0	0	0	1
Neck	0	0	0	0	0	0	1
Head	0	0	0	0	0	0	1
LeftEye	0	0	0	0	0	0	1
RightEye	0	0	0	0	0	0	1
LeftShoulder	0	0	0	0	0	0	1
LeftArm	0	0	0	0	0	0	1
LeftForeArm	0	0	0	0	0	0	1
LeftHand	0	0	0	0	0	0	1
LeftHandThumb1	0	0	0	0	0	0	1
LeftHandThumb2	0	0	0	0	0	0	1
LeftHandThumb3	0	0	0	0	0	0	1
LeftHandThumb4	0	0	0	0	0	0	1
LeftHandIndex1	0	0	0	0	0	0	1
LeftHandIndex2	0	0	0	0	0	0	1
LeftHandIndex3	0	0	0	0	0	0	1
LeftHandIndex4	0	0	0	0	0	0	1
LeftHandMiddle1	0	0	0	0	0	0	1
LeftHandMiddle2	0	0	0	0	0	0	1
LeftHandMiddle3	0	0	0	0	0	0	1
LeftHandMiddle4	0	0	0	0	0	0	1
LeftHandRing1	0	0	0	0	0	0	1
LeftHandRing2	0	0	0	0	0	0	1
LeftHandRing3	0	0	0	0	0	0	1
LeftHandRing4	0	0	0	0	0	0	1
LeftHandPinky1	0	0	0	0	0	0	1
LeftHandPinky2	0	0	0	0	0	0	1
LeftHandPinky3	0	0	0	0	0	0	1
LeftHandPinky4	0	0	0	0	0	0	1
RightShoulder	0	0	0	0	0	0	1
RightArm	0	0	0	0	0	0	1
RightForeArm	0	0	0	0	0	0	1
RightHand	0	0	0	0	0	0	1
RightHandPinky1	0	0	0	0	0	0	1
RightHandPinky2	0	0	0	0	0	0	1
RightHandPinky3	0	0	0	0	0	0	1
RightHandPinky4	0	0	0	0	0	0	1
RightHandRing1	0	0	0	0	0	0	1
RightHandRing2	0	0	0	0	0	0	1
RightHandRing3	0	0	0	0	0	0	1
RightHandRing4	0	0	0	0	0	0	1
RightHandMiddle1	0	0	0	0	0	0	1
RightHandMiddle2	0	0	0	0	0	0	1
RightHandMiddle3	0	0	0	0	0	0	1
RightHandMiddle4	0	0	0	0	0	0	1
RightHandIndex1	0	0	0	0	0	0	1
RightHandIndex2	0	0	0	0	0	0	1
RightHandIndex3	0	0	0	0	0	0	1
RightHandIndex4	0	0	0	0	0	0	1
RightHandThumb1	0	0	0	0	0	0	1
RightHandThumb2	0	0	0	0	0	0	1
RightHandThumb3	0	0	0	0	0	0	1
RightHandThumb4	0	0	0	0	0	0	1
LeftUpLeg	0	0	0	0	0	0	1
LeftLeg	0	0	0	0	0	0	1
LeftFoot	0	0	0	0	0	0	1
LeftToeBase	0	0	0	0	0	0	1
RightUpLeg	0	0	0	0	0	0	1
RightLeg	0	0	0	0	0	0	1
RightFoot	0	0	0	0	0	0	1
RightToeBase	0	0	0	0	0	0	1
[Hips]
39	13.57744598	1027.647095	14.99635696	0.3687050343	0.2135803103	-3.32942152	1.0
40	8.668812752	1021.161011	15.00872612	-0.3568967581	0.8873161674	-4.438755989	1.0
41	8.668812752	1021.161011	15.00872612	-0.3568967581	0.8873161674	-4.438755989	1.0
[Spine]
39	0	101.8159943	1.315000057	1.58208549	-0.7704156637	1.307450414	1.0
40	0	101.8159943	1.315000057	1.616734266	-1.022290468	2.276792526	1.0
41	0	101.8159943	1.315000057	1.616734266	-1.022290468	2.276792526	1.0
[Spine1]
39	0	100.8349991	-10.00800037	0.958403945	0.1926846802	5.489170074	1.0
40	0	100.8349991	-10.00800037	0.8725123405	0.202938959	5.819097996	1.0
41	0	100.8349991	-10.00800037	0.8725123405	0.202938959	5.819097996	1.0
[Spine2]
39	0	91	-13.73399925	0.984518528	0.7024273872	5.409239769	1.0
40	0	91	-13.73399925	0.9050599933	0.7205272317	5.735239506	1.0
41	0	91	-13.73399925	0.9050599933	0.7205272317	5.735239506	1.0
[Neck]
39	0	166.7169952	-25.16200066	-0.1732343733	-0.2797381878	-2.786530018	1.0
40	0	166.7169952	-25.16200066	0.1076598763	-0.2527964115	-2.584054232	1.0
41	0	166.7169952	-25.16200066	0.1076598763	-0.2527964115	-2.584054232	1.0
[Head]
39	0	96.17900085	16.84999847	-1.057515979	0.0583961755	-8.394773483	1.0
40	0	96.17900085	16.84999847	-0.1123580337	0.3561220169	-8.296337128	1.0
41	0	96.17900085	16.84999847	-0.1123580337	0.3561220169	-8.296337128	1.0
[LeftEye]
39	30.6760006	64.09500122	92.83599854	0	0	0	1.0
40	30.6760006	64.09500122	92.83599854	0	0	0	1.0
41	30.6760006	64.09500122	92.83599854	0	0	0	1.0
[RightEye]
39	-30.6760006	64.09500122	92.83499908	0	0	0	1.0
40	-30.6760006	64.09500122	92.83499908	0	0	0	1.0
41	-30.6760006	64.09500122	92.83499908	0	0	0	1.0
[LeftShoulder]
39	45.70400238	109.4599991	-26.28000069	4.579167366	-14.64401245	-4.457813263	1.0
40	45.70400238	109.4599991	-26.28000069	4.758277893	-13.66571712	-5.232739925	1.0
41	45.70400238	109.4599991	-26.28000069	4.758277893	-13.66571712	-5.232739925	1.0
[LeftArm]
39	105.923996	-5.24600029	-22.32099915	-2.369936705	4.159274578	-80.43478394	1.0
40	105.923996	-5.24600029	-22.32099915	-2.759293795	4.020655632	-82.30432892	1.0
41	105.923996	-5.24600029	-22.32099915	-2.759293795	4.020655632	-82.30432892	1.0
[LeftForeArm]
39	278.414978	-0.0009999999311	0	1.2640362e-06	-20.92808723	-0.0002059320686	1.0
40	278.414978	-0.0009999999311	0	2.217959945e-06	-18.4894619	-0.0002193676046	1.0
41	278.414978	-0.0009999999311	0	2.217959945e-06	-18.4894619	-0.0002193676046	1.0
[LeftHand]
39	283.2879944	0	0	-29.07766533	-1.554721117	-14.82055283	1.0
40	283.2879944	0	0	-29.38341141	-1.074284554	-13.84166145	1.0
41	283.2879944	0	0	-29.38341141	-1.074284554	-13.84166145	1.0
[LeftHandThumb1]
39	24.6609993	-15.75	26.8239994	18.08988953	-3.88107729	10.23072624	1.0
40	24.6609993	-15.75	26.8239994	18.09028625	-3.880607605	10.23086071	1.0
41	24.6609993	-15.75	26.8239994	18.09028625	-3.880607605	10.23086071	1.0
[LeftHandThumb2]
39	32.29800034	-18.64699936	18.64699936	-0.4593756795	32.7761116	-2.85537672	1.0
40	32.29800034	-18.64699936	18.64699936	-0.4589093626	32.77726746	-2.85509944	1.0
41	32.29800034	-18.64699936	18.64699936	-0.4589093626	32.77726746	-2.85509944	1.0
[LeftHandThumb3]
39	26.52600098	-15.31499958	15.31499958	2.087763786	9.317269325	-0.01902966574	1.0
40	26.52600098	-15.31499958	15.31499958	2.087893009	9.317735672	-0.01891522855	1.0
41	26.52600098	-15.31499958	15.31499958	2.087893009	9.317735672	-0.01891522855	1.0
[LeftHandThumb4]
39	19.54599953	-11.28499985	11.28499985	0	0	0	1.0
40	19.54599953	-11.28499985	11.28499985	0	0	0	1.0
41	19.54599953	-11.28499985	11.28499985	0	0	0	1.0
[LeftHandIndex1]
39	91.09299469	-5.170999527	22.60099792	-1.043877602	5.383293152	-16.07738876	1.0
40	91.09299469	-5.170999527	22.60099792	-0.4955588579	4.888503075	-10.17699909	1.0
41	91.09299469	-5.170999527	22.60099792	-0.4955588579	4.888503075	-10.17699909	1.0
[LeftHandIndex2]
39	36.76399994	0	0	-1.09427774	3.461087465	-28.78736115	1.0
40	36.76399994	0	0	-0.7449652553	2.976268291	-22.90126228	1.0
41	36.76399994	0	0	-0.7449652553	2.976268291	-22.90126228	1.0
[LeftHandIndex3]
39	28.83100128	0	0	-0.3332201838	1.597091556	-18.3648262	1.0
40	28.83100128	0	0	-0.1556545794	1.034609914	-12.49400043	1.0
41	28.83100128	0	0	-0.1556545794	1.034609914	-12.49400043	1.0
[LeftHandIndex4]
39	23.92700005	0	0	0	0	0	1.0
40	23.92700005	0	0	0	0	0	1.0
41	23.92700005	0	0	0	0	0	1.0
[LeftHandMiddle1]
39	95.33399963	0	0	-2.575841904	9.183364868	-24.19139862	1.0
40	95.33399963	0	0	-1.808620572	8.85016346	-18.23443604	1.0
41	95.33399963	0	0	-1.808620572	8.85016346	-18.23443604	1.0
[LeftHandMiddle2]
39	36.98199844	0	0	-2.048727512	4.376290321	-41.66337585	1.0
40	36.98199844	0	0	-1.590685606	3.993662357	-35.75471497	1.0
41	36.98199844	0	0	-1.590685606	3.993662357	-35.75471497	1.0
[LeftHandMiddle3]
39	29.50900078	0	0	-0.4138038158	2.255554676	-20.46324539	1.0
40	29.50900078	0	0	-0.2070860267	1.709486485	-14.58906555	1.0
41	29.50900078	0	0	-0.2070860267	1.709486485	-14.58906555	1.0
[LeftHandMiddle4]
39	28.3390007	0	0	0	0	0	1.0
40	28.3390007	0	0	0	0	0	1.0
41	28.3390007	0	0	0	0	0	1.0
[LeftHandRing1]
39	91.04499817	-0.4390000105	-18.65100098	-4.164569855	11.85078716	-35.32168198	1.0
40	91.04499817	-0.4390000105	-18.65100098	-3.340084314	11.67330933	-29.32771301	1.0
41	91.04499817	-0.4390000105	-18.65100098	-3.340084314	11.67330933	-29.32771301	1.0
[LeftHandRing2]
39	31.54000092	0	0	-1.761696219	4.645371914	-48.47233582	1.0
40	31.54000092	0	0	-1.344102144	4.235011578	-42.54561234	1.0
41	31.54000092	0	0	-1.344102144	4.235011578	-42.54561234	1.0
[LeftHandRing3]
39	29.37700081	0	0	-0.3614245653	2.671771765	-27.53541565	1.0
40	29.37700081	0	0	-0.1515737772	2.126883745	-21.66171074	1.0
41	29.37700081	0	0	-0.1515737772	2.126883745	-21.66171074	1.0
[LeftHandRing4]
39	26.47500038	0	0	0	0	0	1.0
40	26.47500038	0	0	0	0	0	1.0
41	26.47500038	0	0	0	0	0	1.0
[LeftHandPinky1]
39	80.77799988	-4.887000084	-38.06099701	-7.592280388	15.96494579	-45.46446228	1.0
40	80.77799988	-4.887000084	-38.06099701	-5.897870064	16.13607407	-39.33252335	1.0
41	80.77799988	-4.887000084	-38.06099701	-5.897870064	16.13607407	-39.33252335	1.0
[LeftHandPinky2]
39	36	0	0	-2.612966537	4.293910027	-53.90065002	1.0
40	36	0	0	-2.12399888	3.967097521	-47.9979744	1.0
41	36	0	0	-2.12399888	3.967097521	-47.9979744	1.0
[LeftHandPinky3]
39	21.14200211	0	0	-0.9669108987	3.536753893	-28.74090958	1.0
40	21.14200211	0	0	-0.6477754712	3.042139769	-22.85531044	1.0
41	21.14200211	0	0	-0.6477754712	3.042139769	-22.85531044	1.0
[LeftHandPinky4]
39	19.75699997	0	0	0	0	0	1.0
40	19.75699997	0	0	0	0	0	1.0
41	19.75699997	0	0	0	0	0	1.0
[RightShoulder]
39	-45.70000076	109.4620056	-26.28000069	4.903696537	4.535747528	1.064422607	1.0
40	-45.70000076	109.4620056	-26.28000069	4.802203655	3.833848476	3.536293745	1.0
41	-45.70000076	109.4620056	-26.28000069	4.802203655	3.833848476	3.536293745	1.0
[RightArm]
39	-105.9280014	-5.248000145	-22.32099915	2.124176502	0.6077037454	69.87384033	1.0
40	-105.9280014	-5.248000145	-22.32099915	0.9449691772	0.9815992117	68.60546875	1.0
41	-105.9280014	-5.248000145	-22.32099915	0.9449691772	0.9815992117	68.60546875	1.0
[RightForeArm]
39	-278.414978	0	0	2.216012717e-06	20.8881588	7.463059774e-06	1.0
40	-278.414978	0	0	5.837757726e-06	18.29410744	3.427014963e-05	1.0
41	-278.414978	0	0	5.837757726e-06	18.29410744	3.427014963e-05	1.0
[RightHand]
39	-283.2879944	0	0.0009999999311	-13.29734516	-5.924229145	15.27651215	1.0
40	-283.2879944	0	0.0009999999311	-13.77808762	-6.244876862	13.51628304	1.0
41	-283.2879944	0	0.0009999999311	-13.77808762	-6.244876862	13.51628304	1.0
[RightHandPinky1]
39	-80.76699829	-4.885000229	-38.06000137	-5.222340584	-16.12865829	36.90436554	1.0
40	-80.76699829	-4.885000229	-38.06000137	-5.222003937	-16.12966156	36.90235901	1.0
41	-80.76699829	-4.885000229	-38.06000137	-5.222003937	-16.12966156	36.90235901	1.0
[RightHandPinky2]
39	-36	0	0.0009999999311	-1.944321394	-3.81591177	45.66448975	1.0
40	-36	0	0.0009999999311	-1.944174647	-3.815784216	45.66253662	1.0
41	-36	0	0.0009999999311	-1.944174647	-3.815784216	45.66253662	1.0
[RightHandPinky3]
39	-21.14200211	0	0	-0.7654933929	0.05465880409	22.12532234	1.0
40	-21.14200211	0	0	-0.7654054165	0.05482931063	22.12341309	1.0
41	-21.14200211	0	0	-0.7654054165	0.05482931063	22.12341309	1.0
[RightHandPinky4]
39	-19.75699997	0	0	0	0	0	1.0
40	-19.75699997	0	0	0	0	0	1.0
41	-19.75699997	0	0	0	0	0	1.0
[RightHandRing1]
39	-91.03599548	-0.4390000105	-18.65100098	-3.023468018	-11.54931259	26.96051788	1.0
40	-91.03599548	-0.4390000105	-18.65100098	-3.023224831	-11.54962635	26.95853043	1.0
41	-91.03599548	-0.4390000105	-18.65100098	-3.023224831	-11.54962635	26.95853043	1.0
[RightHandRing2]
39	-31.54000092	0	0	-1.197380304	-4.055104733	40.20299149	1.0
40	-31.54000092	0	0	-1.197262287	-4.054954529	40.20106125	1.0
41	-31.54000092	0	0	-1.197262287	-4.054954529	40.20106125	1.0
[RightHandRing3]
39	-29.37700081	0	0	-0.1383372545	0.08993466198	17.81649399	1.0
40	-29.37700081	0	0	-0.1382981241	0.09012041241	17.8145771	1.0
41	-29.37700081	0	0	-0.1382981241	0.09012041241	17.8145771	1.0
[RightHandRing4]
39	-26.47500038	0	0	0	0	0	1.0
40	-26.47500038	0	0	0	0	0	1.0
41	-26.47500038	0	0	0	0	0	1.0
[RightHandMiddle1]
39	-95.32500458	0	0	-1.521885395	-8.677940369	15.88260555	1.0
40	-95.32500458	0	0	-1.521653652	-8.67735672	15.88070488	1.0
41	-95.32500458	0	0	-1.521653652	-8.67735672	15.88070488	1.0
[RightHandMiddle2]
39	-36.98199844	0	0	-1.426850915	-3.823057652	33.41919327	1.0
40	-36.98199844	0	0	-1.426719785	-3.822915792	33.41726685	1.0
41	-36.98199844	0	0	-1.426719785	-3.822915792	33.41726685	1.0
[RightHandMiddle3]
39	-29.50900078	0	0	-0.253498286	-1.678371906	15.90070915	1.0
40	-29.50900078	0	0	-0.2534432709	-1.678191662	15.89879227	1.0
41	-29.50900078	0	0	-0.2534432709	-1.678191662	15.89879227	1.0
[RightHandMiddle4]
39	-28.3390007	0	0.0009999999311	0	0	0	1.0
40	-28.3390007	0	0.0009999999311	0	0	0	1.0
41	-28.3390007	0	0.0009999999311	0	0	0	1.0
[RightHandIndex1]
39	-91.08300018	-5.167999744	22.60099792	-0.3014131188	-4.671229839	7.846170902	1.0
40	-91.08300018	-5.167999744	22.60099792	-0.301240176	-4.669929981	7.844334126	1.0
41	-91.08300018	-5.167999744	22.60099792	-0.301240176	-4.669929981	7.844334126	1.0
[RightHandIndex2]
39	-36.76399994	0	0	-0.6282562613	-2.770296335	20.5745182	1.0
40	-36.76399994	0	0	-0.6281630397	-2.770125389	20.57258987	1.0
41	-36.76399994	0	0	-0.6281630397	-2.770125389	20.57258987	1.0
[RightHandIndex3]
39	-28.83100128	0	0	-0.2385412455	-0.1576038748	13.84605598	1.0
40	-28.83100128	0	0	-0.2384956777	-0.1574168652	13.84413338	1.0
41	-28.83100128	0	0	-0.2384956777	-0.1574168652	13.84413338	1.0
[RightHandIndex4]
39	-23.92700005	0	0	0	0	0	1.0
40	-23.92700005	0	0	0	0	0	1.0
41	-23.92700005	0	0	0	0	0	1.0
[RightHandThumb1]
39	-24.64799881	-15.72700024	26.82600021	18.09035873	3.880367994	-10.23120213	1.0
40	-24.64799881	-15.72700024	26.82600021	18.08962631	3.881215572	-10.2309885	1.0
41	-24.64799881	-15.72700024	26.82600021	18.08962631	3.881215572	-10.2309885	1.0
[RightHandThumb2]
39	-32.29800034	-18.64699936	18.64699936	-0.459224999	-32.77706146	2.856631279	1.0
40	-32.29800034	-18.64699936	18.64699936	-0.4600602984	-32.77494812	2.857115507	1.0
41	-32.29800034	-18.64699936	18.64699936	-0.4600602984	-32.77494812	2.857115507	1.0
[RightHandThumb3]
39	-26.52600098	-15.31399918	15.31399918	1.866420627	-8.464425087	0.8298864961	1.0
40	-26.52600098	-15.31399918	15.31399918	1.866205573	-8.463586807	0.830093801	1.0
41	-26.52600098	-15.31399918	15.31399918	1.866205573	-8.463586807	0.830093801	1.0
[RightHandThumb4]
39	-19.54599953	-11.28499985	11.28499985	0	0	0	1.0
40	-19.54599953	-11.28499985	11.28499985	0	0	0	1.0
41	-19.54599953	-11.28499985	11.28499985	0	0	0	1.0
[LeftUpLeg]
39	82.07800293	-67.51699829	-15.99599934	-15.65141487	14.61445236	9.572323799	1.0
40	82.07800293	-67.51699829	-15.99599934	-16.41509819	15.03422546	10.71328735	1.0
41	82.07800293	-67.51699829	-15.99599934	-16.41509819	15.03422546	10.71328735	1.0
[LeftLeg]
39	0	-443.7049866	2.845999956	18.63124657	9.178024292	4.522787094	1.0
40	0	-443.7049866	2.845999956	21.32444954	8.740197182	5.481218815	1.0
41	0	-443.7049866	2.845999956	21.32444954	8.740197182	5.481218815	1.0
[LeftFoot]
39	0	-444.2789917	-29.8219986	3.538078308	3.394828558	-7.841165543	1.0
40	0	-444.2789917	-29.8219986	0.4648641944	3.396477222	-8.369730949	1.0
41	0	-444.2789917	-29.8219986	0.4648641944	3.396477222	-8.369730949	1.0
[LeftToeBase]
39	0	-87.28699493	107.1060028	-4.158881187	-6.000815574e-06	1.28732097e-06	1.0
40	0	-87.28699493	107.1060028	-1.981517076	2.759941026e-06	2.584034746e-07	1.0
41	0	-87.28699493	107.1060028	-1.981517076	2.759941026e-06	2.584034746e-07	1.0
[RightUpLeg]
39	-82.07800293	-67.51699829	-15.99599934	-0.1192406416	-5.542928696	7.982721329	1.0
40	-82.07800293	-67.51699829	-15.99599934	-1.894081831	-5.160611153	9.382939339	1.0
41	-82.07800293	-67.51699829	-15.99599934	-1.894081831	-5.160611153	9.382939339	1.0
[RightLeg]
39	0	-443.7049866	2.861999989	4.677026749	-5.339059353	2.42054224	1.0
40	0	-443.7049866	2.861999989	9.710407257	-5.592758656	2.305948257	1.0
41	0	-443.7049866	2.861999989	9.710407257	-5.592758656	2.305948257	1.0
[RightFoot]
39	0	-444.2770081	-29.83799934	-5.58891964	2.977024078	-7.21751976	1.0
40	0	-444.2770081	-29.83799934	-8.616437912	1.351735592	-7.68004179	1.0
41	0	-444.2770081	-29.83799934	-8.616437912	1.351735592	-7.68004179	1.0
[RightToeBase]
39	0	-87.28699493	107.1060028	-1.455473661	1.315763711e-06	8.579204405e-07	1.0
40	0	-87.28699493	107.1060028	-0.7156139612	1.281737468e-06	4.7869122e-07	1.0
41	0	-87.28699493	107.1060028	-0.7156139612	1.281737468e-06	4.7869122e-07	1.0
[EndOfFile]
